<?xml version="1.0" encoding="utf-8"?>
<!-- Generator: Adobe Illustrator 22.0.1, SVG Export Plug-In . SVG Version: 6.00 Build 0)  -->
<svg version="1.1" xmlns="http://www.w3.org/2000/svg" xmlns:xlink="http://www.w3.org/1999/xlink" x="0px" y="0px"
	 viewBox="0 0 488.962 165.614" style="enable-background:new 0 0 488.962 165.614;" xml:space="preserve">
<style type="text/css">
	.st0{fill:url(#SVGID_1_);}
	.st1{fill:url(#SVGID_2_);}
	.st2{fill:url(#SVGID_3_);}
	.st3{fill:url(#SVGID_4_);}
	.st4{fill:url(#SVGID_5_);}
	.st5{fill:url(#SVGID_6_);}
	.st6{fill:url(#SVGID_7_);}
	.st7{fill:url(#SVGID_8_);}
</style>
<g id="Layer_3">
</g>
<g id="Layer_4">
	<g>
		<g>
			<g>
				<path d="M171.239,63.387c2.168,0,2.942,0.697,2.942,2.942v4.492c0,2.246-0.774,2.942-2.942,2.942
					c-5.034,0-7.047,1.858-7.047,6.427v0.232h7.125c2.091,0,2.865,0.697,2.865,2.865v4.646c0,2.168-0.774,2.865-2.865,2.865h-7.125
					v27.026c0,2.168-0.697,2.865-2.942,2.865h-5.885c-2.168,0-2.865-0.697-2.865-2.865V90.8h-3.407
					c-2.091,0-2.788-0.697-2.788-2.865v-4.646c0-2.168,0.697-2.865,2.788-2.865h3.407v-0.232c0-11.073,5.885-16.649,17.733-16.804
					H171.239z"/>
				<path d="M176.969,95.601c0-10.299,6.427-16.34,18.43-16.34c12.081,0,18.508,6.041,18.508,16.34v9.989
					c0,10.3-6.427,16.262-18.508,16.262c-12.003,0-18.43-6.04-18.43-16.262V95.601z M202.214,95.446
					c0-3.872-2.246-5.808-6.814-5.808c-4.491,0-6.737,1.936-6.737,5.808v10.222c0,3.872,2.246,5.809,6.737,5.809
					c4.569,0,6.814-1.937,6.814-5.809V95.446z"/>
				<path d="M219.328,95.601c0-10.299,6.427-16.34,18.43-16.34c12.08,0,18.508,6.041,18.508,16.34v9.989
					c0,10.3-6.428,16.262-18.508,16.262c-12.003,0-18.43-6.04-18.43-16.262V95.601z M244.572,95.446
					c0-3.872-2.246-5.808-6.814-5.808c-4.491,0-6.737,1.936-6.737,5.808v10.222c0,3.872,2.246,5.809,6.737,5.809
					c4.569,0,6.814-1.937,6.814-5.809V95.446z"/>
				<path d="M261.764,96.066c0-10.919,5.73-16.805,16.804-16.805c2.091,0,4.414,0.155,7.124,0.465V66.252
					c0-2.168,0.697-2.865,2.865-2.865h5.963c2.169,0,2.865,0.697,2.865,2.865v48.708c0,2.556-0.542,3.252-3.098,4.259
					c-4.259,1.781-9.292,2.633-15.255,2.633c-11.538,0-17.269-5.343-17.269-16.029V96.066z M285.691,90.18
					c-1.936-0.31-3.717-0.465-5.188-0.465c-4.725,0-7.047,2.091-7.047,6.351v9.68c0,3.64,2.4,5.652,6.504,5.652
					c2.246,0,4.027-0.154,5.499-0.542c0.154-0.077,0.231-0.154,0.231-0.387V90.18z"/>
				<path d="M320.848,79.881c5.653,0,9.525,1.394,11.771,4.104c2.168,2.71,3.252,6.427,3.252,10.996v20.367
					c0,2.71-0.619,3.484-2.788,4.413c-3.098,1.316-7.201,2.014-12.312,2.014c-6.35,0-10.687-0.929-13.01-2.865
					c-2.323-1.858-3.484-4.801-3.484-8.905c0-8.596,4.724-11.693,16.804-11.693c2.246,0,6.04,0.31,11.461,0.852v-4.259
					c0-7.511-2.787-12.003-11.848-12.003c-5.808,0-9.835,2.168-12.158,6.583c-0.31,0.464-0.696,0.619-1.239,0.387l-1.238-0.465
					c-0.62-0.31-0.774-0.774-0.465-1.316C308.458,82.592,313.491,79.881,320.848,79.881z M332.541,101.951
					c-5.652-0.542-9.603-0.852-11.771-0.852c-9.603,0-13.087,2.4-13.087,8.828c0,3.098,0.929,5.343,2.71,6.814
					c1.781,1.471,5.111,2.245,10.145,2.245c4.182,0,7.589-0.542,10.222-1.548c1.549-0.62,1.781-1.007,1.781-2.865V101.951z"/>
				<path d="M344.698,95.524c0-10.455,5.421-15.643,16.262-15.643c4.879,0,9.061,0.774,12.7,2.246
					c2.478,1.162,3.02,1.781,3.02,4.259v37.17c0,11.151-5.343,16.727-16.029,16.727c-7.047,0-12.08-2.942-15.023-8.75
					c-0.387-0.697-0.232-1.162,0.388-1.472l1.084-0.542c0.542-0.31,1.007-0.155,1.394,0.387c2.4,4.724,5.809,7.357,12.081,7.357
					c8.518,0,12.777-4.492,12.777-13.552v-5.267c-4.414,1.859-8.983,2.788-13.784,2.788c-9.912,0-14.868-4.956-14.868-14.868V95.524
					z M361.192,82.979c-8.751,0-13.164,4.182-13.164,12.623v10.687c0,7.976,3.949,11.925,11.925,11.925
					c4.337,0,8.828-0.929,13.397-2.864V87.315c0-1.549-0.311-1.858-1.937-2.556C368.239,83.598,364.832,82.979,361.192,82.979z"/>
				<path d="M389.302,67.181c1.472,0,1.937,0.464,1.937,1.936v0.464c0,1.471-0.465,2.014-1.937,2.014h-0.387
					c-1.549,0-2.014-0.465-2.014-2.014v-0.464c0-1.472,0.465-1.936,2.014-1.936H389.302z M389.844,81.043
					c0.62,0,0.93,0.31,0.93,0.852v37.867c0,0.62-0.31,0.93-0.93,0.93h-1.549c-0.542,0-0.852-0.31-0.852-0.93V81.895
					c0-0.542,0.31-0.852,0.852-0.852H389.844z"/>
				<path d="M405.254,119.761c0,0.62-0.31,0.93-0.853,0.93h-1.548c-0.543,0-0.853-0.31-0.853-0.93V64.316
					c0-0.62,0.31-0.929,0.853-0.929h1.548c0.543,0,0.853,0.31,0.853,0.929V119.761z"/>
				<path d="M418.417,67.181c1.472,0,1.937,0.464,1.937,1.936v0.464c0,1.471-0.465,2.014-1.937,2.014h-0.387
					c-1.549,0-2.014-0.465-2.014-2.014v-0.464c0-1.472,0.465-1.936,2.014-1.936H418.417z M418.959,81.043
					c0.62,0,0.93,0.31,0.93,0.852v37.867c0,0.62-0.31,0.93-0.93,0.93h-1.549c-0.542,0-0.852-0.31-0.852-0.93V81.895
					c0-0.542,0.31-0.852,0.852-0.852H418.959z"/>
				<path d="M437.234,71.75c0.619,0,0.929,0.31,0.929,0.852v8.441h12.312c0.62,0,0.93,0.31,0.93,0.852v1.316
					c0,0.542-0.31,0.852-0.93,0.852h-12.312v22.458c0,4.878,0.853,8.131,2.556,9.68c1.626,1.626,4.879,2.4,9.603,2.4
					c0.619,0,0.929,0.31,0.929,0.93v1.316c0,0.619-0.31,0.929-0.929,0.929c-5.808,0.077-9.835-1.007-12.08-3.175
					c-2.246-2.091-3.407-6.117-3.407-12.003V84.063h-8.364c-0.542,0-0.852-0.31-0.852-0.852v-1.316c0-0.542,0.31-0.852,0.852-0.852
					h8.364v-8.441c0-0.542,0.31-0.852,0.929-0.852H437.234z"/>
				<path d="M488.11,81.043c0.542,0,0.852,0.31,0.852,0.852v41.662c0,11.151-5.344,16.727-16.107,16.727
					c-7.124,0-12.157-2.942-15.101-8.75c-0.465-0.697-0.31-1.162,0.388-1.472l1.007-0.542c0.619-0.31,1.084-0.155,1.471,0.387
					c2.479,4.879,6.505,7.357,12.158,7.357c8.596,0,12.854-4.492,12.854-13.552v-5.034c-4.568,1.704-9.138,2.556-13.552,2.556
					c-9.989,0-15.022-4.956-15.022-14.945V81.895c0-0.542,0.31-0.852,0.929-0.852h1.472c0.619,0,0.929,0.31,0.929,0.852v24.238
					c0,8.054,4.027,12.08,12.003,12.08c4.414,0,8.828-0.852,13.242-2.633V81.895c0-0.542,0.31-0.852,0.93-0.852H488.11z"/>
			</g>
			
				<linearGradient id="SVGID_1_" gradientUnits="userSpaceOnUse" x1="184.2895" y1="-965.2343" x2="150.6262" y2="-952.2802" gradientTransform="matrix(0.976 -0.2179 0.2179 0.976 123.5976 982.5391)">
				<stop  offset="0" style="stop-color:#FFFFFF"/>
				<stop  offset="0.053" style="stop-color:#EEF0F4"/>
				<stop  offset="0.2271" style="stop-color:#BBC2D5"/>
				<stop  offset="0.399" style="stop-color:#919CBB"/>
				<stop  offset="0.565" style="stop-color:#707EA6"/>
				<stop  offset="0.7236" style="stop-color:#596998"/>
				<stop  offset="0.8717" style="stop-color:#4B5C8F"/>
				<stop  offset="0.9987" style="stop-color:#46588C"/>
			</linearGradient>
			<path class="st0" d="M77.11,35.453c2.564-2.586,4.115-4.94,5.043-6.528c2.411-4.126,2.652-6.463,3.115-9.689l0.318-2.398
				c-1.968-2.875-6.064-8.08-12.975-12.025C66.228,1.171,60.223,0.325,56.823,0c0,0,11.041,3.691,15.135,13.447
				S77.11,35.453,77.11,35.453z"/>
			<linearGradient id="SVGID_2_" gradientUnits="userSpaceOnUse" x1="152.3869" y1="154.87" x2="87.196" y2="86.0324">
				<stop  offset="0" style="stop-color:#FFFFFF"/>
				<stop  offset="0.0917" style="stop-color:#F9FCFC"/>
				<stop  offset="0.2171" style="stop-color:#E7F4F4"/>
				<stop  offset="0.3622" style="stop-color:#CAE8E8"/>
				<stop  offset="0.5218" style="stop-color:#A2D6D6"/>
				<stop  offset="0.6936" style="stop-color:#6EBFBF"/>
				<stop  offset="0.8724" style="stop-color:#30A3A3"/>
				<stop  offset="0.9987" style="stop-color:#008E8E"/>
			</linearGradient>
			<path class="st1" d="M74.648,149.868c0.276,0.545,2.025,2.543,4.358,4.914c1.331,1.353,2.751,2.792,4.865,4.365
				c1.528,1.138,3.057,2.066,4.766,3c12.01,6.563,27.59,1.792,27.61,1.787c0.473-0.118-7.92,2.725-14.768,0.291
				c-7.488-2.662-13.887-10.264-15.296-18.507c-2.217-12.964,8.417-24.535,16.241-33.048c8.765-9.537,9.82-8.876,16.052-15.296
				c0.585-0.603,11.331-11.331,12.464-22.095c0.213-2.02,1.322-5.476,3.21-7.743c2.367-2.841,5.189-3.763,5.099-3.966
				c-0.182-0.408-12.35,2.63-25.631,9.559c-10.803,5.636-18.553,10.099-28.887,23.72c-8.418,11.096-12.372,20.013-13.152,31.705
				C71.108,135.601,70.873,142.412,74.648,149.868z"/>
			<linearGradient id="SVGID_3_" gradientUnits="userSpaceOnUse" x1="60.9829" y1="61.6883" x2="95.0645" y2="95.0534">
				<stop  offset="0" style="stop-color:#FFFFFF"/>
				<stop  offset="0.0917" style="stop-color:#F9FCFC"/>
				<stop  offset="0.2171" style="stop-color:#E7F4F4"/>
				<stop  offset="0.3622" style="stop-color:#CAE8E8"/>
				<stop  offset="0.5218" style="stop-color:#A2D6D6"/>
				<stop  offset="0.6936" style="stop-color:#6EBFBF"/>
				<stop  offset="0.8724" style="stop-color:#30A3A3"/>
				<stop  offset="0.9987" style="stop-color:#008E8E"/>
			</linearGradient>
			<path class="st2" d="M74.299,149.453c-4.029-4.977-8.178-11.607-9.994-20.013c-2.397-11.093,1.094-20.222,3.399-26.249
				C75.489,82.834,92.22,73.004,97.73,69.766c1.952-1.147,6.654-4.489,13.597-6.043c12.652-2.833,22.762-1.611,25.83-0.976
				c1.425,0.295,2.086,0.818,2.086,0.818s-12.224,2.692-25.505,9.621c-10.803,5.636-18.553,10.099-28.887,23.72
				c-8.418,11.096-12.372,20.013-13.152,31.705c-0.47,7.046-0.705,13.856,3.07,21.313L74.299,149.453z"/>
			<linearGradient id="SVGID_4_" gradientUnits="userSpaceOnUse" x1="94.9641" y1="175.9108" x2="117.1583" y2="137.2325">
				<stop  offset="0" style="stop-color:#FFFFFF"/>
				<stop  offset="0.5533" style="stop-color:#FEDA78"/>
				<stop  offset="1" style="stop-color:#FEBE10"/>
			</linearGradient>
			<path class="st3" d="M152.202,130.206c0,0-2.313,7.905-7.668,14.946c0,0-10.596,15.789-30.026,19.262
				c-5.683,1.016-10.796,1.992-17.751-2.644c-7.814-5.208-12.976-15.189-10.386-25.116c0.546-2.094,1.21-3.772,1.988-5.395
				c1.463-3.056,2.77-4.662,2.77-4.662s0.732,10.32,7.622,15.533c4.37,3.307,6.458,3.935,10.881,5.113
				c4.95,1.318,11.508,3.139,21.223-0.203C144.621,142.302,152.202,130.206,152.202,130.206z"/>
			<linearGradient id="SVGID_5_" gradientUnits="userSpaceOnUse" x1="132.1471" y1="112.5868" x2="107.9116" y2="148.7592">
				<stop  offset="0" style="stop-color:#FFFFFF"/>
				<stop  offset="0.5533" style="stop-color:#FEDA78"/>
				<stop  offset="1" style="stop-color:#FEBE10"/>
			</linearGradient>
			<path class="st4" d="M147.564,134.324c-5.987,4.189-13.483,4.668-16.754,4.474c-3.617-0.214-9.903-1.702-15.081-5.811
				c-9.065-7.195-12.354-21.324-12.354-21.324s-2.872,2.852-4.699,4.802c-4.302,4.591-5.827,7.33-7.592,9.87v-0.036
				c0,0,0.785,10.627,7.675,15.839c4.37,3.307,6.458,3.935,10.881,5.113c4.95,1.318,11.508,3.139,21.223-0.204
				c13.767-4.737,21.376-16.877,21.376-16.877S150.441,132.312,147.564,134.324z"/>
			
				<linearGradient id="SVGID_6_" gradientUnits="userSpaceOnUse" x1="120.7704" y1="-935.5751" x2="157.5965" y2="-955.3859" gradientTransform="matrix(0.976 -0.2179 0.2179 0.976 123.5976 982.5391)">
				<stop  offset="0.0062" style="stop-color:#FFFFFF"/>
				<stop  offset="0.0362" style="stop-color:#F9F9FB"/>
				<stop  offset="0.5105" style="stop-color:#99A3C0"/>
				<stop  offset="0.8415" style="stop-color:#5D6D9A"/>
				<stop  offset="0.9987" style="stop-color:#46588C"/>
			</linearGradient>
			<path class="st5" d="M57.358,0.189c0,0,7.339,2.569,10.672,6.493c2.885,3.396,5.849,10.238,7.261,16.561
				c1.699,7.606,1.775,11.902,1.775,11.902c-2.512,2.595-4.36,3.845-7.263,5.691c-7.759,4.935-21.156,7.354-21.156,7.354
				s3.901-2.533,5.274-3.454c2.208-1.482,8.476-5.642,11.384-13.605c2.717-7.44,1.139-13.877,0.464-16.501
				c-1.68-6.53-5.16-10.842-7.019-12.854l-1.84-1.749"/>
			
				<linearGradient id="SVGID_7_" gradientUnits="userSpaceOnUse" x1="88.6251" y1="-949.3749" x2="147.6381" y2="-881.4146" gradientTransform="matrix(0.976 -0.2179 0.2179 0.976 123.5976 982.5391)">
				<stop  offset="0" style="stop-color:#FFFFFF"/>
				<stop  offset="0.0917" style="stop-color:#F9FCFC"/>
				<stop  offset="0.2171" style="stop-color:#E7F4F4"/>
				<stop  offset="0.3622" style="stop-color:#CAE8E8"/>
				<stop  offset="0.5218" style="stop-color:#A2D6D6"/>
				<stop  offset="0.6936" style="stop-color:#6EBFBF"/>
				<stop  offset="0.8724" style="stop-color:#30A3A3"/>
				<stop  offset="0.9987" style="stop-color:#008E8E"/>
			</linearGradient>
			<path class="st6" d="M6.028,111.374c1.721,0.33,2.487-1.961,7.953-4.678c4.373-2.174,9.911-3.495,12.561-4.004
				c11.214-2.152,18.679-5.32,22.699-7.063c4.07-1.764,11.946-5.114,20.234-12.065c4.611-3.867,10.568-8.863,14.944-17.559
				c4.5-8.942,5.075-18.104,5.514-25.033c0.263-4.151-0.024-9.871-1.016-13.605c0,0-1.105,14.539-10.944,21.934
				s-32.94,16.658-44.34,26.864S16.33,91.793,11.877,98.806C7.425,105.82,6.028,111.374,6.028,111.374z"/>
			
				<linearGradient id="SVGID_8_" gradientUnits="userSpaceOnUse" x1="91.6781" y1="-964.4296" x2="133.6095" y2="-898.1613" gradientTransform="matrix(0.976 -0.2179 0.2179 0.976 123.5976 982.5391)">
				<stop  offset="0" style="stop-color:#FFFFFF"/>
				<stop  offset="0.0917" style="stop-color:#F9FCFC"/>
				<stop  offset="0.2171" style="stop-color:#E7F4F4"/>
				<stop  offset="0.3622" style="stop-color:#CAE8E8"/>
				<stop  offset="0.5218" style="stop-color:#A2D6D6"/>
				<stop  offset="0.6936" style="stop-color:#6EBFBF"/>
				<stop  offset="0.8724" style="stop-color:#30A3A3"/>
				<stop  offset="0.9987" style="stop-color:#008E8E"/>
			</linearGradient>
			<path class="st7" d="M6.142,111.408c-5.28-1.013-10.718-25.011,0.11-42.399c5.846-9.388,14.564-13.846,17.22-15.165
				c8.344-4.141,10.917-2.513,25.157-5.618c12.391-2.701,21.237-5.9,28.333-13.079c7.882-7.973,8.57-18.379,8.57-18.379
				s3.712,6.806,3.516,12.272c-0.128,3.551,1.036,13.154-6.302,23.036C71.422,67.33,62.575,70.49,47.565,77.404
				C35.137,83.129,21.83,88.939,14.23,97.132c-5.65,6.09-8.098,14.242-8.098,14.242"/>
		</g>
	</g>
</g>
</svg>
