<svg xmlns="http://www.w3.org/2000/svg" viewBox="-162.857 -88 1416.933 1071.714"><rect width="1000%" height="1000%" x="-500%" y="-500%" fill="#EEEEEE"/><path fill="none" stroke="#EEEEEE" stroke-width="8" d="M342.49 214.867l-.01-.01H-40.786v12.095"/><defs><linearGradient id="a" x1="100%" x2="50%" y1="100%" y2="50%"><stop offset="0%" stop-color="#3397DA"/><stop offset="100%" stop-color="#aabbccdd"/></linearGradient></defs><path fill="none" stroke="url(#a)" stroke-width="3" d="M342.49 214.867l-.01-.01H-40.786v12.095"/><path fill="none" stroke="#EEEEEE" stroke-width="8" d="M400.899 260.296l-.01-.01H40.786v-2.667"/><defs><linearGradient id="b" x1="100%" x2="50%" y1="100%" y2="50%"><stop offset="0%" stop-color="#3397DA"/><stop offset="100%" stop-color="#aabbccdd"/></linearGradient></defs><path fill="none" stroke="url(#b)" stroke-width="3" d="M400.899 260.296l-.01-.01H40.786v-2.667"/><path fill="none" stroke="#EEEEEE" stroke-width="8" d="M576.126 305.724l-.01-.01H993.43v199.572"/><defs><linearGradient id="c" x1="0%" x2="50%" y1="0%" y2="50%"><stop offset="0%" stop-color="#3397DA"/><stop offset="100%" stop-color="#aabbccdd"/></linearGradient></defs><path fill="none" stroke="url(#c)" stroke-width="3" d="M576.126 305.724l-.01-.01H993.43v199.572"/><path fill="none" stroke="#EEEEEE" stroke-width="8" d="M634.535 260.296l-.01-.01h387.764V156"/><defs><linearGradient id="d" x1="0%" x2="50%" y1="0%" y2="50%"><stop offset="0%" stop-color="#3397DA"/><stop offset="100%" stop-color="#aabbccdd"/></linearGradient></defs><path fill="none" stroke="url(#d)" stroke-width="3" d="M634.535 260.296l-.01-.01h387.764V156"/><path fill="none" stroke="url(#d)" stroke-width="1.5" d="M1042.299 250.51l-2.01-.01v8h2M1046.299 250.51l1.99-.01v8h-2"/><path fill="none" stroke="#EEEEEE" stroke-width="8" d="M459.308 305.724l-.01-.01H59.36V485"/><defs><linearGradient id="e" x1="0%" x2="50%" y1="0%" y2="50%"><stop offset="0%" stop-color="#3397DA"/><stop offset="100%" stop-color="#aabbccdd"/></linearGradient></defs><path fill="none" stroke="url(#e)" stroke-width="3" d="M459.308 305.724l-.01-.01H59.36V485"/><path fill="none" stroke="#EEEEEE" stroke-width="8" d="M375.925 680.01l-.01-.01H99.073v66"/><defs><linearGradient id="f" x1="0%" x2="50%" y1="0%" y2="50%"><stop offset="0%" stop-color="#3397DA"/><stop offset="100%" stop-color="#aabbccdd"/></linearGradient></defs><path fill="none" stroke="url(#f)" stroke-width="3" d="M375.925 680.01l-.01-.01H99.073v66"/><path fill="none" stroke="#EEEEEE" stroke-width="8" d="M603.672 710.01l-.01-.01h366.126v28.714"/><defs><linearGradient id="g" x1="0%" x2="50%" y1="0%" y2="50%"><stop offset="0%" stop-color="#3397DA"/><stop offset="100%" stop-color="#aabbccdd"/></linearGradient></defs><path fill="none" stroke="url(#g)" stroke-width="3" d="M603.672 710.01l-.01-.01h366.126v28.714"/><path fill="none" stroke="#EEEEEE" stroke-width="8" d="M451.84 710.01l-.01-.01v194.714H335.288"/><defs><linearGradient id="h" x1="0%" x2="50%" y1="0%" y2="50%"><stop offset="0%" stop-color="#3397DA"/><stop offset="100%" stop-color="#aabbccdd"/></linearGradient></defs><path fill="none" stroke="url(#h)" stroke-width="3" d="M451.84 710.01l-.01-.01v194.714H335.288"/><path fill="none" stroke="url(#h)" stroke-width="1.5" d="M471.84 845.224l-2.01-.01v8h2M475.84 845.224l1.99-.01v8h-2"/><path fill="none" stroke="#EEEEEE" stroke-width="8" d="M527.756 740.01l-.01-.01v170.429h85.612"/><defs><linearGradient id="i" x1="0%" x2="50%" y1="0%" y2="50%"><stop offset="0%" stop-color="#3397DA"/><stop offset="100%" stop-color="#aabbccdd"/></linearGradient></defs><path fill="none" stroke="url(#i)" stroke-width="3" d="M527.756 740.01l-.01-.01v170.429h85.612"/><path fill="none" stroke="url(#i)" stroke-width="1.5" d="M547.756 850.939l-2.01-.01v8h2M551.756 850.939l1.99-.01v8h-2"/><path fill="none" stroke="#EEEEEE" stroke-width="8" d="M507.512.01l-.01-.01v328.429h-19"/><defs><linearGradient id="j" x1="0%" x2="50%" y1="0%" y2="50%"><stop offset="0%" stop-color="#3397DA"/><stop offset="100%" stop-color="#3397DA"/></linearGradient></defs><path fill="none" stroke="url(#j)" stroke-width="3" d="M507.512.01l-.01-.01v328.429h-19"/><path fill="none" stroke="#EEEEEE" stroke-width="8" d="M517.717 351.153l-.01-.01V725h-27.918"/><defs><linearGradient id="k" x1="0%" x2="50%" y1="0%" y2="50%"><stop offset="0%" stop-color="#3397DA"/><stop offset="100%" stop-color="#3397DA"/></linearGradient></defs><path fill="none" stroke="url(#k)" stroke-width="3" d="M517.717 351.153l-.01-.01V725h-27.918"/><path fill="none" stroke="url(#k)" stroke-width="1.5" d="M537.717 629.51l-2.01-.01v8h2M541.717 629.51l1.99-.01v8h-2"/><path fill="#FFFFFF" stroke="#3397DA" stroke-width="3" d="M357.143-68h300.718V68H357.143z"/><path fill="#3397da" stroke="#3397da" d="M358.143-27H658.86"/><path fill="none" stroke="#3397DA" stroke-width="3" d="M357.143-68h300.718V68H357.143z"/><text x="367.143" y="-50" style="font:700 16px 'Lucida Console',monospace" fill="#000000">DigitalLivestockPassport</text><text x="367.143" y="-34" style="font:500 14px 'Lucida Console',monospace" fill="#999">＜＜untp.VerifiableCredential＞＞</text><text x="367.143" y="-10" style="font:500 14px 'Lucida Console',monospace" fill="#666">@context:</text><text x="447.001" y="-10" style="font:500 14px 'Lucida Console',monospace" fill="#02b57b">Text[]</text><text x="367.143" y="4" style="font:500 14px 'Lucida Console',monospace" fill="#666">id:</text><text x="396.429" y="4" style="font:500 14px 'Lucida Console',monospace" fill="#C9A30B">URI</text><text x="367.143" y="18" style="font:500 14px 'Lucida Console',monospace" fill="#666">issuer:</text><text x="430.144" y="18" style="font:500 14px 'Lucida Console',monospace" fill="#02b57b">CredentialIssuer</text><text x="367.143" y="32" style="font:500 14px 'Lucida Console',monospace" fill="#666">validFrom:</text><text x="455.43" y="32" style="font:500 14px 'Lucida Console',monospace" fill="#02b57b">DateTime</text><text x="367.143" y="46" style="font:500 14px 'Lucida Console',monospace" fill="#666">validUntil:</text><text x="463.859" y="46" style="font:500 14px 'Lucida Console',monospace" fill="#02b57b">DateTime</text><text x="367.143" y="60" style="font:500 14px 'Lucida Console',monospace" fill="#000000">credentialSubject:</text><text x="522.86" y="60" style="font:500 14px 'Lucida Console',monospace" fill="#3397DA">BovineAnimal</text><path fill="#FFFFFF" stroke="#3397DA" stroke-width="3" d="M284.071 169.429h408.863v318H284.071z"/><path fill="#3397da" stroke="#3397da" d="M285.07 210.429h408.864"/><path fill="none" stroke="#3397DA" stroke-width="3" d="M284.071 169.429h408.863v318H284.071z"/><text x="294.071" y="187.429" style="font:700 16px 'Lucida Console',monospace" fill="#000000">BovineAnimal</text><text x="294.071" y="203.429" style="font:500 14px 'Lucida Console',monospace" fill="#999">＜＜aatp.Animal＞＞</text><text x="294.071" y="227.429" style="font:500 14px 'Lucida Console',monospace" fill="#666">name:</text><text x="340.214" y="227.429" style="font:500 14px 'Lucida Console',monospace" fill="#547000">Text</text><text x="294.071" y="241.429" style="font:500 14px 'Lucida Console',monospace" fill="#666">registeredId:</text><text x="407.644" y="241.429" style="font:500 14px 'Lucida Console',monospace" fill="#547000">Text</text><text x="294.071" y="255.429" style="font:500 14px 'Lucida Console',monospace" fill="#666">idScheme:</text><text x="373.929" y="255.429" style="font:500 14px 'Lucida Console',monospace" fill="#547000">untp.IdentifierScheme</text><text x="294.071" y="269.429" style="font:500 14px 'Lucida Console',monospace" fill="#666">nlisId:</text><text x="357.072" y="269.429" style="font:500 14px 'Lucida Console',monospace" fill="#547000">Text</text><text x="294.071" y="283.429" style="font:500 14px 'Lucida Console',monospace" fill="#666">mobNumber:</text><text x="382.358" y="283.429" style="font:500 14px 'Lucida Console',monospace" fill="#547000">Text</text><text x="294.071" y="297.429" style="font:500 14px 'Lucida Console',monospace" fill="#666">productImage:</text><text x="407.644" y="297.429" style="font:500 14px 'Lucida Console',monospace" fill="#547000">untp.Link</text><text x="294.071" y="311.429" style="font:500 14px 'Lucida Console',monospace" fill="#666">description:</text><text x="399.215" y="311.429" style="font:500 14px 'Lucida Console',monospace" fill="#547000">Text</text><text x="294.071" y="325.429" style="font:500 14px 'Lucida Console',monospace" fill="#666">productCategory:</text><text x="432.93" y="325.429" style="font:500 14px 'Lucida Console',monospace" fill="#547000">untp.Classification[]</text><text x="294.071" y="339.429" style="font:500 14px 'Lucida Console',monospace" fill="#666">furtherInformation:</text><text x="458.216" y="339.429" style="font:500 14px 'Lucida Console',monospace" fill="#547000">untp.Link[]</text><text x="294.071" y="353.429" style="font:500 14px 'Lucida Console',monospace" fill="#666">producedByParty:</text><text x="432.93" y="353.429" style="font:500 14px 'Lucida Console',monospace" fill="#547000">untp.Entity</text><text x="294.071" y="367.429" style="font:500 14px 'Lucida Console',monospace" fill="#666">producedAtFacility:</text><text x="458.216" y="367.429" style="font:500 14px 'Lucida Console',monospace" fill="#547000">untp.Entity</text><text x="294.071" y="381.429" style="font:500 14px 'Lucida Console',monospace" fill="#666">countryOfProduction:</text><text x="466.645" y="381.429" style="font:500 14px 'Lucida Console',monospace" fill="#547000">Code(countryCode)</text><text x="294.071" y="395.429" style="font:500 14px 'Lucida Console',monospace" fill="#666">dimensions:</text><text x="390.786" y="395.429" style="font:500 14px 'Lucida Console',monospace" fill="#547000">untp.Dimension</text><text x="294.071" y="409.429" style="font:500 14px 'Lucida Console',monospace" fill="#666">birthDate:</text><text x="382.358" y="409.429" style="font:500 14px 'Lucida Console',monospace" fill="#547000">Date</text><text x="294.071" y="423.429" style="font:500 14px 'Lucida Console',monospace" fill="#000000">id:</text><text x="323.357" y="423.429" style="font:500 14px 'Lucida Console',monospace" fill="#C9A30B">URI</text><text x="294.071" y="437.429" style="font:500 14px 'Lucida Console',monospace" fill="#000000">characteristics:</text><text x="432.93" y="437.429" style="font:500 14px 'Lucida Console',monospace" fill="#547000">aatp.BovineCharcteristics</text><text x="294.071" y="451.429" style="font:500 14px 'Lucida Console',monospace" fill="#000000">healthTreatments:</text><text x="441.359" y="451.429" style="font:500 14px 'Lucida Console',monospace" fill="#547000">aatp.HealthTreatment[]</text><text x="294.071" y="465.429" style="font:500 14px 'Lucida Console',monospace" fill="#000000">emissionsScorecard:</text><text x="458.216" y="465.429" style="font:500 14px 'Lucida Console',monospace" fill="#547000">untp.EmissionsPerformance</text><text x="294.071" y="479.429" style="font:500 14px 'Lucida Console',monospace" fill="#000000">conformityDeclarations:</text><text x="491.931" y="479.429" style="font:500 14px 'Lucida Console',monospace" fill="#3397DA">BovineDeclaration[]</text><path fill="#FFFFFF" stroke="#3397DA" stroke-width="3" d="M300 650h379.577v150H300z"/><path fill="#3397da" stroke="#3397da" d="M301 691h379.577"/><path fill="none" stroke="#3397DA" stroke-width="3" d="M300 650h379.577v150H300z"/><text x="310" y="668" style="font:700 16px 'Lucida Console',monospace" fill="#000000">BovineDeclaration</text><text x="310" y="684" style="font:500 14px 'Lucida Console',monospace" fill="#999">＜＜untp.Declaration＞＞</text><text x="310" y="708" style="font:500 14px 'Lucida Console',monospace" fill="#000000">id:</text><text x="339.286" y="708" style="font:500 14px 'Lucida Console',monospace" fill="#C9A30B">URI</text><text x="310" y="722" style="font:500 14px 'Lucida Console',monospace" fill="#000000">referenceStandard:</text><text x="465.717" y="722" style="font:500 14px 'Lucida Console',monospace" fill="#547000">untp.Standard</text><text x="310" y="736" style="font:500 14px 'Lucida Console',monospace" fill="#000000">referenceRegulation:</text><text x="482.574" y="736" style="font:500 14px 'Lucida Console',monospace" fill="#547000">untp.Regulation</text><text x="310" y="750" style="font:500 14px 'Lucida Console',monospace" fill="#000000">assessmentCriteria:</text><text x="474.146" y="750" style="font:500 14px 'Lucida Console',monospace" fill="#547000">untp.Criterion[]</text><text x="310" y="764" style="font:500 14px 'Lucida Console',monospace" fill="#000000">declaredValues:</text><text x="440.431" y="764" style="font:500 14px 'Lucida Console',monospace" fill="#547000">untp.Metric[]</text><text x="310" y="778" style="font:500 14px 'Lucida Console',monospace" fill="#000000">compliance:</text><text x="406.716" y="778" style="font:500 14px 'Lucida Console',monospace" fill="#547000">Indicator</text><text x="310" y="792" style="font:500 14px 'Lucida Console',monospace" fill="#000000">conformityTopic:</text><text x="448.859" y="792" style="font:500 14px 'Lucida Console',monospace" fill="#547000">Code(conformityTopicCode)</text><path fill="#FFFFFF" stroke="#aabbccdd" stroke-width="3" d="M-122.359 196.286h244.718v92h-244.718z"/><path fill="#aabbccdd" stroke="#aabbccdd" d="M-121.359 221.286H123.36"/><path fill="none" stroke="#aabbccdd" stroke-width="3" d="M-122.359 196.286h244.718v92h-244.718z"/><text x="-112.359" y="214.286" style="font:700 16px 'Lucida Console',monospace" fill="#000000">untp.Entity</text><text x="-112.359" y="238.286" style="font:500 14px 'Lucida Console',monospace" fill="#000000">id:</text><text x="-83.073" y="238.286" style="font:500 14px 'Lucida Console',monospace" fill="#C9A30B">URI</text><text x="-112.359" y="252.286" style="font:500 14px 'Lucida Console',monospace" fill="#000000">name:</text><text x="-66.215" y="252.286" style="font:500 14px 'Lucida Console',monospace" fill="#02b57b">Text</text><text x="-112.359" y="266.286" style="font:500 14px 'Lucida Console',monospace" fill="#000000">registeredId:</text><text x="1.214" y="266.286" style="font:500 14px 'Lucida Console',monospace" fill="#02b57b">Text</text><text x="-112.359" y="280.286" style="font:500 14px 'Lucida Console',monospace" fill="#000000">idScheme:</text><text x="-32.5" y="280.286" style="font:500 14px 'Lucida Console',monospace" fill="#02b57b">IdentifierScheme</text><path fill="#FFFFFF" stroke="#aabbccdd" stroke-width="3" d="M772.784 416.286h441.292v178H772.784z"/><path fill="#aabbccdd" stroke="#aabbccdd" d="M773.784 457.286h441.292"/><path fill="none" stroke="#aabbccdd" stroke-width="3" d="M772.784 416.286h441.292v178H772.784z"/><text x="782.784" y="434.286" style="font:700 16px 'Lucida Console',monospace" fill="#000000">aatp.BovineCharcteristics</text><text x="782.784" y="450.286" style="font:500 14px 'Lucida Console',monospace" fill="#999">＜＜untp.Characteristic＞＞</text><text x="782.784" y="474.286" style="font:500 14px 'Lucida Console',monospace" fill="#000000">sex:</text><text x="820.499" y="474.286" style="font:500 14px 'Lucida Console',monospace" fill="#530abb">Code(SexCode)</text><text x="782.784" y="488.286" style="font:500 14px 'Lucida Console',monospace" fill="#000000">sexCharacteristic:</text><text x="938.501" y="488.286" style="font:500 14px 'Lucida Console',monospace" fill="#530abb">Code(SexCharacteristicCode)</text><text x="782.784" y="502.286" style="font:500 14px 'Lucida Console',monospace" fill="#000000">breed:</text><text x="837.356" y="502.286" style="font:500 14px 'Lucida Console',monospace" fill="#530abb">Code(BreedCode)[]</text><text x="782.784" y="516.286" style="font:500 14px 'Lucida Console',monospace" fill="#000000">liveWeight:</text><text x="879.5" y="516.286" style="font:500 14px 'Lucida Console',monospace" fill="#02b57b">Decimal</text><text x="782.784" y="530.286" style="font:500 14px 'Lucida Console',monospace" fill="#000000">carcassWeight:</text><text x="904.786" y="530.286" style="font:500 14px 'Lucida Console',monospace" fill="#02b57b">Decimal</text><text x="782.784" y="544.286" style="font:500 14px 'Lucida Console',monospace" fill="#000000">fatScore:</text><text x="862.642" y="544.286" style="font:500 14px 'Lucida Console',monospace" fill="#530abb">Code(FatScoreCode)</text><text x="782.784" y="558.286" style="font:500 14px 'Lucida Console',monospace" fill="#000000">muscleScore:</text><text x="887.929" y="558.286" style="font:500 14px 'Lucida Console',monospace" fill="#530abb">Code(MuscleScoreCode)</text><text x="782.784" y="572.286" style="font:500 14px 'Lucida Console',monospace" fill="#000000">frameSize:</text><text x="871.071" y="572.286" style="font:500 14px 'Lucida Console',monospace" fill="#530abb">Code(FrameSizeCode)</text><text x="782.784" y="586.286" style="font:500 14px 'Lucida Console',monospace" fill="#000000">maturity:</text><text x="862.642" y="586.286" style="font:500 14px 'Lucida Console',monospace" fill="#530abb">Code(MaturityTypeCode)</text><path fill="#FFFFFF" stroke="#aabbccdd" stroke-width="3" d="M814.286 82h416.006v148H814.286z"/><path fill="#aabbccdd" stroke="#aabbccdd" d="M815.286 107h416.006"/><path fill="none" stroke="#aabbccdd" stroke-width="3" d="M814.286 82h416.006v148H814.286z"/><text x="824.286" y="100" style="font:700 16px 'Lucida Console',monospace" fill="#000000">aatp.HealthTreatment</text><text x="824.286" y="124" style="font:500 14px 'Lucida Console',monospace" fill="#000000">icarDiseaseCategory:</text><text x="996.86" y="124" style="font:500 14px 'Lucida Console',monospace" fill="#530abb">Code(IcarCategoryCode)</text><text x="824.286" y="138" style="font:500 14px 'Lucida Console',monospace" fill="#000000">treatmentDate:</text><text x="946.288" y="138" style="font:500 14px 'Lucida Console',monospace" fill="#02b57b">Date</text><text x="824.286" y="152" style="font:500 14px 'Lucida Console',monospace" fill="#000000">productId:</text><text x="912.573" y="152" style="font:500 14px 'Lucida Console',monospace" fill="#530abb">Code(TreatmentProductCode)</text><text x="824.286" y="166" style="font:500 14px 'Lucida Console',monospace" fill="#000000">productBatchId:</text><text x="954.716" y="166" style="font:500 14px 'Lucida Console',monospace" fill="#02b57b">Text</text><text x="824.286" y="180" style="font:500 14px 'Lucida Console',monospace" fill="#000000">productExpiry:</text><text x="946.288" y="180" style="font:500 14px 'Lucida Console',monospace" fill="#02b57b">Date</text><text x="824.286" y="194" style="font:500 14px 'Lucida Console',monospace" fill="#000000">productName:</text><text x="929.43" y="194" style="font:500 14px 'Lucida Console',monospace" fill="#02b57b">Text</text><text x="824.286" y="208" style="font:500 14px 'Lucida Console',monospace" fill="#000000">doseRate:</text><text x="904.144" y="208" style="font:500 14px 'Lucida Console',monospace" fill="#547000">untp.Measure</text><text x="824.286" y="222" style="font:500 14px 'Lucida Console',monospace" fill="#000000">witholdingPeriod:</text><text x="971.574" y="222" style="font:500 14px 'Lucida Console',monospace" fill="#02b57b">Integer</text><path fill="#FFFFFF" stroke="#aabbccdd" stroke-width="3" d="M-142.857 432h404.435v106h-404.435z"/><path fill="#aabbccdd" stroke="#aabbccdd" d="M-141.857 457h404.434"/><path fill="none" stroke="#aabbccdd" stroke-width="3" d="M-142.857 432h404.435v106h-404.435z"/><text x="-132.857" y="450" style="font:700 16px 'Lucida Console',monospace" fill="#000000">untp.EmissionsPerformance</text><text x="-132.857" y="474" style="font:500 14px 'Lucida Console',monospace" fill="#000000">carbonFootprint:</text><text x="6.002" y="474" style="font:500 14px 'Lucida Console',monospace" fill="#02b57b">Decimal</text><text x="-132.857" y="488" style="font:500 14px 'Lucida Console',monospace" fill="#000000">declaredUnit:</text><text x="-19.284" y="488" style="font:500 14px 'Lucida Console',monospace" fill="#530abb">Code(unitOfMeasure)</text><text x="-132.857" y="502" style="font:500 14px 'Lucida Console',monospace" fill="#000000">operationalScope:</text><text x="14.431" y="502" style="font:500 14px 'Lucida Console',monospace" fill="#530abb">Code(operationalScopeCode)</text><text x="-132.857" y="516" style="font:500 14px 'Lucida Console',monospace" fill="#000000">primarySourcedRatio:</text><text x="39.717" y="516" style="font:500 14px 'Lucida Console',monospace" fill="#02b57b">Decimal</text><text x="-132.857" y="530" style="font:500 14px 'Lucida Console',monospace" fill="#000000">reportingStandard:</text><text x="22.86" y="530" style="font:500 14px 'Lucida Console',monospace" fill="#02b57b">Standard</text><path fill="#FFFFFF" stroke="#aabbccdd" stroke-width="3" d="M0 700h198.146v92H0z"/><path fill="#aabbccdd" stroke="#aabbccdd" d="M1 725h198.146"/><path fill="none" stroke="#aabbccdd" stroke-width="3" d="M0 700h198.146v92H0z"/><text x="10" y="718" style="font:700 16px 'Lucida Console',monospace" fill="#000000">untp.Standard</text><text x="10" y="742" style="font:500 14px 'Lucida Console',monospace" fill="#000000">id:</text><text x="39.286" y="742" style="font:500 14px 'Lucida Console',monospace" fill="#C9A30B">URI</text><text x="10" y="756" style="font:500 14px 'Lucida Console',monospace" fill="#000000">name:</text><text x="56.144" y="756" style="font:500 14px 'Lucida Console',monospace" fill="#02b57b">Text</text><text x="10" y="770" style="font:500 14px 'Lucida Console',monospace" fill="#000000">issuingParty:</text><text x="123.573" y="770" style="font:500 14px 'Lucida Console',monospace" fill="#02b57b">Entity</text><text x="10" y="784" style="font:500 14px 'Lucida Console',monospace" fill="#000000">issueDate:</text><text x="98.287" y="784" style="font:500 14px 'Lucida Console',monospace" fill="#02b57b">Date</text><path fill="#FFFFFF" stroke="#aabbccdd" stroke-width="3" d="M792.857 685.714h353.862v106H792.857z"/><path fill="#aabbccdd" stroke="#aabbccdd" d="M793.857 710.714h353.862"/><path fill="none" stroke="#aabbccdd" stroke-width="3" d="M792.857 685.714h353.862v106H792.857z"/><text x="802.857" y="703.714" style="font:700 16px 'Lucida Console',monospace" fill="#000000">untp.Regulation</text><text x="802.857" y="727.714" style="font:500 14px 'Lucida Console',monospace" fill="#000000">id:</text><text x="832.143" y="727.714" style="font:500 14px 'Lucida Console',monospace" fill="#C9A30B">URI</text><text x="802.857" y="741.714" style="font:500 14px 'Lucida Console',monospace" fill="#000000">name:</text><text x="849.001" y="741.714" style="font:500 14px 'Lucida Console',monospace" fill="#02b57b">Text</text><text x="802.857" y="755.714" style="font:500 14px 'Lucida Console',monospace" fill="#000000">jurisdictionCountry:</text><text x="975.431" y="755.714" style="font:500 14px 'Lucida Console',monospace" fill="#530abb">Code(countryCode)</text><text x="802.857" y="769.714" style="font:500 14px 'Lucida Console',monospace" fill="#000000">administeredBy:</text><text x="933.288" y="769.714" style="font:500 14px 'Lucida Console',monospace" fill="#02b57b">Entity</text><text x="802.857" y="783.714" style="font:500 14px 'Lucida Console',monospace" fill="#000000">effectiveDate:</text><text x="924.859" y="783.714" style="font:500 14px 'Lucida Console',monospace" fill="#02b57b">Date</text><path fill="#FFFFFF" stroke="#aabbccdd" stroke-width="3" d="M217.143 865.714h236.289v78H217.143z"/><path fill="#aabbccdd" stroke="#aabbccdd" d="M218.143 890.714h236.289"/><path fill="none" stroke="#aabbccdd" stroke-width="3" d="M217.143 865.714h236.289v78H217.143z"/><text x="227.143" y="883.714" style="font:700 16px 'Lucida Console',monospace" fill="#000000">untp.Criterion</text><text x="227.143" y="907.714" style="font:500 14px 'Lucida Console',monospace" fill="#000000">id:</text><text x="256.429" y="907.714" style="font:500 14px 'Lucida Console',monospace" fill="#C9A30B">URI</text><text x="227.143" y="921.714" style="font:500 14px 'Lucida Console',monospace" fill="#000000">name:</text><text x="273.286" y="921.714" style="font:500 14px 'Lucida Console',monospace" fill="#02b57b">Text</text><text x="227.143" y="935.714" style="font:500 14px 'Lucida Console',monospace" fill="#000000">thresholdValues:</text><text x="366.002" y="935.714" style="font:500 14px 'Lucida Console',monospace" fill="#02b57b">Metric[]</text><path fill="#FFFFFF" stroke="#aabbccdd" stroke-width="3" d="M514.286 871.429h198.146v78H514.286z"/><path fill="#aabbccdd" stroke="#aabbccdd" d="M515.286 896.429H713.43"/><path fill="none" stroke="#aabbccdd" stroke-width="3" d="M514.286 871.429h198.146v78H514.286z"/><text x="524.286" y="889.429" style="font:700 16px 'Lucida Console',monospace" fill="#000000">untp.Metric</text><text x="524.286" y="913.429" style="font:500 14px 'Lucida Console',monospace" fill="#000000">metricName:</text><text x="621.002" y="913.429" style="font:500 14px 'Lucida Console',monospace" fill="#02b57b">Text</text><text x="524.286" y="927.429" style="font:500 14px 'Lucida Console',monospace" fill="#000000">metricValue:</text><text x="629.43" y="927.429" style="font:500 14px 'Lucida Console',monospace" fill="#02b57b">Measure</text><text x="524.286" y="941.429" style="font:500 14px 'Lucida Console',monospace" fill="#000000">accuracy:</text><text x="604.144" y="941.429" style="font:500 14px 'Lucida Console',monospace" fill="#02b57b">Numeric</text></svg>