<svg xmlns="http://www.w3.org/2000/svg" viewBox="-240 -88 1596.006 928.571"><rect width="1000%" height="1000%" x="-500%" y="-500%" fill="#EEEEEE"/><path fill="none" stroke="#EEEEEE" stroke-width="8" d="M632.993 328.439l-.01-.01h295.732v135.095"/><defs><linearGradient id="a" x1="0%" x2="50%" y1="0%" y2="50%"><stop offset="0%" stop-color="#3397DA"/><stop offset="100%" stop-color="#aabbccdd"/></linearGradient></defs><path fill="none" stroke="url(#a)" stroke-width="3" d="M632.993 328.439l-.01-.01h295.732v135.095"/><path fill="none" stroke="#EEEEEE" stroke-width="8" d="M691.976 288.689l-.01-.01h318.322V494.19"/><defs><linearGradient id="b" x1="0%" x2="50%" y1="0%" y2="50%"><stop offset="0%" stop-color="#3397DA"/><stop offset="100%" stop-color="#aabbccdd"/></linearGradient></defs><path fill="none" stroke="url(#b)" stroke-width="3" d="M691.976 288.689l-.01-.01h318.322V494.19"/><path fill="none" stroke="#EEEEEE" stroke-width="8" d="M515.027 288.689l-.01-.01V704.57H226.358"/><defs><linearGradient id="c" x1="0%" x2="50%" y1="0%" y2="50%"><stop offset="0%" stop-color="#3397DA"/><stop offset="100%" stop-color="#aabbccdd"/></linearGradient></defs><path fill="none" stroke="url(#c)" stroke-width="3" d="M515.027 288.689l-.01-.01V704.57H226.358"/><path fill="none" stroke="url(#c)" stroke-width="1.5" d="M493.444 684.581l-2.01-.01v8h2M497.444 684.581l1.99-.01v8h-2"/><path fill="none" stroke="#EEEEEE" stroke-width="8" d="M397.06 209.189l-.01-.01H37.005V94.429"/><defs><linearGradient id="d" x1="100%" x2="50%" y1="100%" y2="50%"><stop offset="0%" stop-color="#3397DA"/><stop offset="100%" stop-color="#2ECB70"/></linearGradient></defs><path fill="none" stroke="url(#d)" stroke-width="3" d="M397.06 209.189l-.01-.01H37.005V94.429"/><path fill="none" stroke="#EEEEEE" stroke-width="8" d="M456.044 248.939l-.01-.01H64.502v74.357"/><defs><linearGradient id="e" x1="100%" x2="50%" y1="100%" y2="50%"><stop offset="0%" stop-color="#3397DA"/><stop offset="100%" stop-color="#2ECB70"/></linearGradient></defs><path fill="none" stroke="url(#e)" stroke-width="3" d="M456.044 248.939l-.01-.01H64.502v74.357"/><path fill="none" stroke="#EEEEEE" stroke-width="8" d="M574.01 368.189l-.01-.01V717.57h285"/><defs><linearGradient id="f" x1="0%" x2="50%" y1="0%" y2="50%"><stop offset="0%" stop-color="#3397DA"/><stop offset="100%" stop-color="#aabbccdd"/></linearGradient></defs><path fill="none" stroke="url(#f)" stroke-width="3" d="M574.01 368.189l-.01-.01V717.57h285"/><path fill="none" stroke="#EEEEEE" stroke-width="8" d="M750.959 248.939l-.01-.01h357.054V124"/><defs><linearGradient id="g" x1="0%" x2="50%" y1="0%" y2="50%"><stop offset="0%" stop-color="#3397DA"/><stop offset="100%" stop-color="#aabbccdd"/></linearGradient></defs><path fill="none" stroke="url(#g)" stroke-width="3" d="M750.959 248.939l-.01-.01h357.054V124"/><path fill="none" stroke="url(#g)" stroke-width="1.5" d="M1128.013 218.51l-2.01-.01v8h2M1132.013 218.51l1.99-.01v8h-2"/><path fill="none" stroke="#EEEEEE" stroke-width="8" d="M593.01.01L593 0v328.429h-19"/><defs><linearGradient id="h" x1="0%" x2="50%" y1="0%" y2="50%"><stop offset="0%" stop-color="#3397DA"/><stop offset="100%" stop-color="#3397DA"/></linearGradient></defs><path fill="none" stroke="url(#h)" stroke-width="3" d="M593.01.01L593 0v328.429h-19"/><path fill="#FFFFFF" stroke="#3397DA" stroke-width="3" d="M397.211-68h391.577V68H397.211z"/><path fill="#3397da" stroke="#3397da" d="M398.21-27h391.578"/><path fill="none" stroke="#3397DA" stroke-width="3" d="M397.211-68h391.577V68H397.211z"/><text x="407.211" y="-50" style="font:700 16px 'Lucida Console',monospace" fill="#000000">DigitalLivestockPassport</text><text x="407.211" y="-34" style="font:500 14px 'Lucida Console',monospace" fill="#999">＜＜untp.VerifiableCredential＞＞</text><text x="407.211" y="-10" style="font:500 14px 'Lucida Console',monospace" fill="#000000">@context:</text><text x="487.069" y="-10" style="font:500 14px 'Lucida Console',monospace" fill="#547000">Text[] &lt;&lt;required&gt;&gt;</text><text x="407.211" y="4" style="font:500 14px 'Lucida Console',monospace" fill="#000000">id:</text><text x="436.497" y="4" style="font:500 14px 'Lucida Console',monospace" fill="#C9A30B">URI &lt;&lt;required&gt;&gt;</text><text x="407.211" y="18" style="font:500 14px 'Lucida Console',monospace" fill="#000000">issuer:</text><text x="470.212" y="18" style="font:500 14px 'Lucida Console',monospace" fill="#547000">untp.CredentialIssuer &lt;&lt;required&gt;&gt;</text><text x="407.211" y="32" style="font:500 14px 'Lucida Console',monospace" fill="#000000">validFrom:</text><text x="495.498" y="32" style="font:500 14px 'Lucida Console',monospace" fill="#547000">DateTime</text><text x="407.211" y="46" style="font:500 14px 'Lucida Console',monospace" fill="#000000">validUntil:</text><text x="503.927" y="46" style="font:500 14px 'Lucida Console',monospace" fill="#547000">DateTime</text><text x="407.211" y="60" style="font:500 14px 'Lucida Console',monospace" fill="#000000">credentialSubject:</text><text x="562.928" y="60" style="font:500 14px 'Lucida Console',monospace" fill="#3397DA">BovineAnimal</text><path fill="#FFFFFF" stroke="#3397DA" stroke-width="3" d="M338.068 169.429h471.864v318H338.068z"/><path fill="#3397da" stroke="#3397da" d="M339.068 210.429h471.864"/><path fill="none" stroke="#3397DA" stroke-width="3" d="M338.068 169.429h471.864v318H338.068z"/><text x="348.068" y="187.429" style="font:700 16px 'Lucida Console',monospace" fill="#000000">BovineAnimal</text><text x="348.068" y="203.429" style="font:500 14px 'Lucida Console',monospace" fill="#999">＜＜dpp.Product＞＞</text><text x="348.068" y="227.429" style="font:500 14px 'Lucida Console',monospace" fill="#666">countryOfProduction:</text><text x="520.642" y="227.429" style="font:500 14px 'Lucida Console',monospace" fill="#547000">Code(countryCode)</text><text x="348.068" y="241.429" style="font:500 14px 'Lucida Console',monospace" fill="#000000">id:</text><text x="377.354" y="241.429" style="font:500 14px 'Lucida Console',monospace" fill="#C9A30B">URI &lt;&lt;required&gt;&gt;</text><text x="348.068" y="255.429" style="font:500 14px 'Lucida Console',monospace" fill="#000000">name:</text><text x="394.211" y="255.429" style="font:500 14px 'Lucida Console',monospace" fill="#547000">Text &lt;&lt;required&gt;&gt;</text><text x="348.068" y="269.429" style="font:500 14px 'Lucida Console',monospace" fill="#000000">registeredId:</text><text x="461.641" y="269.429" style="font:500 14px 'Lucida Console',monospace" fill="#547000">Text</text><text x="348.068" y="283.429" style="font:500 14px 'Lucida Console',monospace" fill="#000000">idScheme:</text><text x="427.926" y="283.429" style="font:500 14px 'Lucida Console',monospace" fill="#547000">untp.IdentifierScheme</text><text x="348.068" y="297.429" style="font:500 14px 'Lucida Console',monospace" fill="#000000">batchNumber:</text><text x="453.212" y="297.429" style="font:500 14px 'Lucida Console',monospace" fill="#547000">Text</text><text x="348.068" y="311.429" style="font:500 14px 'Lucida Console',monospace" fill="#000000">productImage:</text><text x="461.641" y="311.429" style="font:500 14px 'Lucida Console',monospace" fill="#547000">untp.Link</text><text x="348.068" y="325.429" style="font:500 14px 'Lucida Console',monospace" fill="#000000">description:</text><text x="453.212" y="325.429" style="font:500 14px 'Lucida Console',monospace" fill="#547000">Text</text><text x="348.068" y="339.429" style="font:500 14px 'Lucida Console',monospace" fill="#000000">productCategory:</text><text x="486.927" y="339.429" style="font:500 14px 'Lucida Console',monospace" fill="#547000">untp.Classification[]</text><text x="348.068" y="353.429" style="font:500 14px 'Lucida Console',monospace" fill="#000000">furtherInformation:</text><text x="512.213" y="353.429" style="font:500 14px 'Lucida Console',monospace" fill="#547000">untp.Link[]</text><text x="348.068" y="367.429" style="font:500 14px 'Lucida Console',monospace" fill="#000000">producedByParty:</text><text x="486.927" y="367.429" style="font:500 14px 'Lucida Console',monospace" fill="#547000">untp.Identifier</text><text x="348.068" y="381.429" style="font:500 14px 'Lucida Console',monospace" fill="#000000">producedAtFacility:</text><text x="512.213" y="381.429" style="font:500 14px 'Lucida Console',monospace" fill="#547000">untp.Identifier</text><text x="348.068" y="395.429" style="font:500 14px 'Lucida Console',monospace" fill="#000000">productionDate:</text><text x="478.498" y="395.429" style="font:500 14px 'Lucida Console',monospace" fill="#547000">Date</text><text x="348.068" y="409.429" style="font:500 14px 'Lucida Console',monospace" fill="#000000">granularityLevel:</text><text x="495.356" y="409.429" style="font:500 14px 'Lucida Console',monospace" fill="#547000">Code(granularityCode)</text><text x="348.068" y="423.429" style="font:500 14px 'Lucida Console',monospace" fill="#000000">conformityClaim:</text><text x="486.927" y="423.429" style="font:500 14px 'Lucida Console',monospace" fill="#547000">dpp.Claim[]</text><text x="348.068" y="437.429" style="font:500 14px 'Lucida Console',monospace" fill="#000000">emissionsScorecard:</text><text x="512.213" y="437.429" style="font:500 14px 'Lucida Console',monospace" fill="#547000">untp.EmissionsPerformance</text><text x="348.068" y="451.429" style="font:500 14px 'Lucida Console',monospace" fill="#000000">traceabilityInformation:</text><text x="554.357" y="451.429" style="font:500 14px 'Lucida Console',monospace" fill="#547000">dpp.TraceabilityPerformance</text><text x="348.068" y="465.429" style="font:500 14px 'Lucida Console',monospace" fill="#000000">characteristics:</text><text x="486.927" y="465.429" style="font:500 14px 'Lucida Console',monospace" fill="#547000">aatp.BovineCharcteristics</text><text x="348.068" y="479.429" style="font:500 14px 'Lucida Console',monospace" fill="#000000">healthTreatment:</text><text x="486.927" y="479.429" style="font:500 14px 'Lucida Console',monospace" fill="#547000">aatp.HealthTreatment[]</text><path fill="#FFFFFF" stroke="#aabbccdd" stroke-width="3" d="M847.143 432.857h244.718v92H847.143z"/><path fill="#aabbccdd" stroke="#aabbccdd" d="M848.143 457.857h244.718"/><path fill="none" stroke="#aabbccdd" stroke-width="3" d="M847.143 432.857h244.718v92H847.143z"/><text x="857.143" y="450.857" style="font:700 16px 'Lucida Console',monospace" fill="#000000">dpp.Identifier</text><text x="857.143" y="474.857" style="font:500 14px 'Lucida Console',monospace" fill="#000000">id:</text><text x="886.429" y="474.857" style="font:500 14px 'Lucida Console',monospace" fill="#C9A30B">URI &lt;&lt;required&gt;&gt;</text><text x="857.143" y="488.857" style="font:500 14px 'Lucida Console',monospace" fill="#000000">name:</text><text x="903.286" y="488.857" style="font:500 14px 'Lucida Console',monospace" fill="#02b57b">Text &lt;&lt;required&gt;&gt;</text><text x="857.143" y="502.857" style="font:500 14px 'Lucida Console',monospace" fill="#000000">registeredId:</text><text x="970.716" y="502.857" style="font:500 14px 'Lucida Console',monospace" fill="#02b57b">Text</text><text x="857.143" y="516.857" style="font:500 14px 'Lucida Console',monospace" fill="#000000">idScheme:</text><text x="937.001" y="516.857" style="font:500 14px 'Lucida Console',monospace" fill="#02b57b">IdentifierScheme</text><path fill="#FFFFFF" stroke="#aabbccdd" stroke-width="3" d="M-20.217 608.571h493.15v192h-493.15z"/><path fill="#aabbccdd" stroke="#aabbccdd" d="M-19.217 649.571h493.15"/><path fill="none" stroke="#aabbccdd" stroke-width="3" d="M-20.217 608.571h493.15v192h-493.15z"/><text x="-10.217" y="626.571" style="font:700 16px 'Lucida Console',monospace" fill="#000000">dpp.Claim</text><text x="-10.217" y="642.571" style="font:500 14px 'Lucida Console',monospace" fill="#999">＜＜untp.Declaration＞＞</text><text x="-10.217" y="666.571" style="font:500 14px 'Lucida Console',monospace" fill="#666">assessmentDate:</text><text x="120.214" y="666.571" style="font:500 14px 'Lucida Console',monospace" fill="#02b57b">Date</text><text x="-10.217" y="680.571" style="font:500 14px 'Lucida Console',monospace" fill="#666">declaredValue:</text><text x="111.785" y="680.571" style="font:500 14px 'Lucida Console',monospace" fill="#02b57b">Metric[]</text><text x="-10.217" y="694.571" style="font:500 14px 'Lucida Console',monospace" fill="#000000">id:</text><text x="19.069" y="694.571" style="font:500 14px 'Lucida Console',monospace" fill="#C9A30B">URI &lt;&lt;required&gt;&gt;</text><text x="-10.217" y="708.571" style="font:500 14px 'Lucida Console',monospace" fill="#000000">referenceStandard:</text><text x="145.5" y="708.571" style="font:500 14px 'Lucida Console',monospace" fill="#547000">untp.Standard</text><text x="-10.217" y="722.571" style="font:500 14px 'Lucida Console',monospace" fill="#000000">referenceRegulation:</text><text x="162.357" y="722.571" style="font:500 14px 'Lucida Console',monospace" fill="#547000">untp.Regulation</text><text x="-10.217" y="736.571" style="font:500 14px 'Lucida Console',monospace" fill="#000000">assessmentCriteria:</text><text x="153.929" y="736.571" style="font:500 14px 'Lucida Console',monospace" fill="#547000">untp.Criterion[]</text><text x="-10.217" y="750.571" style="font:500 14px 'Lucida Console',monospace" fill="#000000">declaredValues:</text><text x="120.214" y="750.571" style="font:500 14px 'Lucida Console',monospace" fill="#547000">untp.Metric[]</text><text x="-10.217" y="764.571" style="font:500 14px 'Lucida Console',monospace" fill="#000000">conformance:</text><text x="94.928" y="764.571" style="font:500 14px 'Lucida Console',monospace" fill="#547000">Indicator &lt;&lt;required&gt;&gt;</text><text x="-10.217" y="778.571" style="font:500 14px 'Lucida Console',monospace" fill="#000000">conformityTopic:</text><text x="128.643" y="778.571" style="font:500 14px 'Lucida Console',monospace" fill="#547000">Code(conformityTopicCode) &lt;&lt;required&gt;&gt;</text><text x="-10.217" y="792.571" style="font:500 14px 'Lucida Console',monospace" fill="#000000">conformityEvidence:</text><text x="153.929" y="792.571" style="font:500 14px 'Lucida Console',monospace" fill="#547000">untp.SecureLink</text><path fill="#FFFFFF" stroke="#aabbccdd" stroke-width="3" d="M-220 41.429h514.008v106H-220z"/><path fill="#aabbccdd" stroke="#aabbccdd" d="M-219 66.429h514.008"/><path fill="none" stroke="#aabbccdd" stroke-width="3" d="M-220 41.429h514.008v106H-220z"/><text x="-210" y="59.429" style="font:700 16px 'Lucida Console',monospace" fill="#000000">dpp.EmissionsPerformance</text><text x="-210" y="83.429" style="font:500 14px 'Lucida Console',monospace" fill="#000000">carbonFootprint:</text><text x="-71.141" y="83.429" style="font:500 14px 'Lucida Console',monospace" fill="#02b57b">Decimal &lt;&lt;required&gt;&gt;</text><text x="-210" y="97.429" style="font:500 14px 'Lucida Console',monospace" fill="#000000">declaredUnit:</text><text x="-96.427" y="97.429" style="font:500 14px 'Lucida Console',monospace" fill="#530abb">Code(unitOfMeasure) &lt;&lt;required&gt;&gt;</text><text x="-210" y="111.429" style="font:500 14px 'Lucida Console',monospace" fill="#000000">operationalScope:</text><text x="-62.712" y="111.429" style="font:500 14px 'Lucida Console',monospace" fill="#530abb">Code(operationalScopeCode) &lt;&lt;required&gt;&gt;</text><text x="-210" y="125.429" style="font:500 14px 'Lucida Console',monospace" fill="#000000">primarySourcedRatio:</text><text x="-37.426" y="125.429" style="font:500 14px 'Lucida Console',monospace" fill="#02b57b">Decimal &lt;&lt;required&gt;&gt;</text><text x="-210" y="139.429" style="font:500 14px 'Lucida Console',monospace" fill="#000000">reportingStandard:</text><text x="-54.283" y="139.429" style="font:500 14px 'Lucida Console',monospace" fill="#02b57b">Standard</text><path fill="#FFFFFF" stroke="#aabbccdd" stroke-width="3" d="M-100 284.286h329.005v78H-100z"/><path fill="#aabbccdd" stroke="#aabbccdd" d="M-99 309.286h329.005"/><path fill="none" stroke="#aabbccdd" stroke-width="3" d="M-100 284.286h329.005v78H-100z"/><text x="-90" y="302.286" style="font:700 16px 'Lucida Console',monospace" fill="#000000">dpp.TraceabilityPerformance</text><text x="-90" y="326.286" style="font:500 14px 'Lucida Console',monospace" fill="#000000">valueChainProcess:</text><text x="65.717" y="326.286" style="font:500 14px 'Lucida Console',monospace" fill="#02b57b">Text</text><text x="-90" y="340.286" style="font:500 14px 'Lucida Console',monospace" fill="#000000">verifiedRatio:</text><text x="32.002" y="340.286" style="font:500 14px 'Lucida Console',monospace" fill="#02b57b">Numeric</text><text x="-90" y="354.286" style="font:500 14px 'Lucida Console',monospace" fill="#000000">traceabilityEvent:</text><text x="65.717" y="354.286" style="font:500 14px 'Lucida Console',monospace" fill="#547000">untp.SecureLink[]</text><path fill="#FFFFFF" stroke="#aabbccdd" stroke-width="3" d="M638.355 636.571h441.292v162H638.355z"/><path fill="#aabbccdd" stroke="#aabbccdd" d="M639.355 661.571h441.292"/><path fill="none" stroke="#aabbccdd" stroke-width="3" d="M638.355 636.571h441.292v162H638.355z"/><text x="648.355" y="654.571" style="font:700 16px 'Lucida Console',monospace" fill="#000000">aatp.BovineCharcteristics</text><text x="648.355" y="678.571" style="font:500 14px 'Lucida Console',monospace" fill="#000000">sex:</text><text x="686.07" y="678.571" style="font:500 14px 'Lucida Console',monospace" fill="#530abb">Code(SexCode)</text><text x="648.355" y="692.571" style="font:500 14px 'Lucida Console',monospace" fill="#000000">sexCharacteristic:</text><text x="804.071" y="692.571" style="font:500 14px 'Lucida Console',monospace" fill="#530abb">Code(SexCharacteristicCode)</text><text x="648.355" y="706.571" style="font:500 14px 'Lucida Console',monospace" fill="#000000">breed:</text><text x="702.927" y="706.571" style="font:500 14px 'Lucida Console',monospace" fill="#530abb">Code(BreedCode)[]</text><text x="648.355" y="720.571" style="font:500 14px 'Lucida Console',monospace" fill="#000000">liveWeight:</text><text x="745.071" y="720.571" style="font:500 14px 'Lucida Console',monospace" fill="#02b57b">Decimal</text><text x="648.355" y="734.571" style="font:500 14px 'Lucida Console',monospace" fill="#000000">carcassWeight:</text><text x="770.357" y="734.571" style="font:500 14px 'Lucida Console',monospace" fill="#02b57b">Decimal</text><text x="648.355" y="748.571" style="font:500 14px 'Lucida Console',monospace" fill="#000000">fatScore:</text><text x="728.213" y="748.571" style="font:500 14px 'Lucida Console',monospace" fill="#530abb">Code(FatScoreCode)</text><text x="648.355" y="762.571" style="font:500 14px 'Lucida Console',monospace" fill="#000000">muscleScore:</text><text x="753.499" y="762.571" style="font:500 14px 'Lucida Console',monospace" fill="#530abb">Code(MuscleScoreCode)</text><text x="648.355" y="776.571" style="font:500 14px 'Lucida Console',monospace" fill="#000000">frameSize:</text><text x="736.642" y="776.571" style="font:500 14px 'Lucida Console',monospace" fill="#530abb">Code(FrameSizeCode)</text><text x="648.355" y="790.571" style="font:500 14px 'Lucida Console',monospace" fill="#000000">maturity:</text><text x="728.213" y="790.571" style="font:500 14px 'Lucida Console',monospace" fill="#530abb">Code(MaturityTypeCode)</text><path fill="#FFFFFF" stroke="#aabbccdd" stroke-width="3" d="M900 50h416.006v148H900z"/><path fill="#aabbccdd" stroke="#aabbccdd" d="M901 75h416.006"/><path fill="none" stroke="#aabbccdd" stroke-width="3" d="M900 50h416.006v148H900z"/><text x="910" y="68" style="font:700 16px 'Lucida Console',monospace" fill="#000000">aatp.HealthTreatment</text><text x="910" y="92" style="font:500 14px 'Lucida Console',monospace" fill="#000000">icarDiseaseCategory:</text><text x="1082.574" y="92" style="font:500 14px 'Lucida Console',monospace" fill="#530abb">Code(IcarCategoryCode)</text><text x="910" y="106" style="font:500 14px 'Lucida Console',monospace" fill="#000000">treatmentDate:</text><text x="1032.002" y="106" style="font:500 14px 'Lucida Console',monospace" fill="#02b57b">Date</text><text x="910" y="120" style="font:500 14px 'Lucida Console',monospace" fill="#000000">productId:</text><text x="998.287" y="120" style="font:500 14px 'Lucida Console',monospace" fill="#530abb">Code(TreatmentProductCode)</text><text x="910" y="134" style="font:500 14px 'Lucida Console',monospace" fill="#000000">productBatchId:</text><text x="1040.431" y="134" style="font:500 14px 'Lucida Console',monospace" fill="#02b57b">Text</text><text x="910" y="148" style="font:500 14px 'Lucida Console',monospace" fill="#000000">productExpiry:</text><text x="1032.002" y="148" style="font:500 14px 'Lucida Console',monospace" fill="#02b57b">Date</text><text x="910" y="162" style="font:500 14px 'Lucida Console',monospace" fill="#000000">productName:</text><text x="1015.145" y="162" style="font:500 14px 'Lucida Console',monospace" fill="#02b57b">Text</text><text x="910" y="176" style="font:500 14px 'Lucida Console',monospace" fill="#000000">doseRate:</text><text x="989.858" y="176" style="font:500 14px 'Lucida Console',monospace" fill="#547000">untp.Measure</text><text x="910" y="190" style="font:500 14px 'Lucida Console',monospace" fill="#000000">witholdingPeriod:</text><text x="1057.288" y="190" style="font:500 14px 'Lucida Console',monospace" fill="#02b57b">Integer</text></svg>